<svg xmlns="http://www.w3.org/2000/svg" width="38.253" height="12.226" viewBox="0 0 38.253 12.226">
  <g id="mustache" transform="translate(0 -131.698)">
    <g id="Group_1" data-name="Group 1" transform="translate(0 131.698)">
      <path id="Path_7" data-name="Path 7" d="M38.138,135.137a.7.7,0,0,0-.233-.482h0a.7.7,0,0,0-.984.075c-3.063,3.557-5.229,1.846-7.628-.055-1.818-1.443-3.751-2.976-6.3-2.976a5.928,5.928,0,0,0-2.482.53,5.253,5.253,0,0,0-1.379.925,5.252,5.252,0,0,0-1.379-.921,5.928,5.928,0,0,0-2.482-.53c-2.561,0-4.834,1.549-6.929,2.976-.692.474-1.368.933-2.008,1.3-1.826,1.047-3.462,1.36-4.905-1.119a.7.7,0,0,0-1.3.237,10.628,10.628,0,0,0,.083,3.692,5.948,5.948,0,0,0,2.229,3.585,8.027,8.027,0,0,0,3.838,1.447,18.352,18.352,0,0,0,6.2-.4,16.545,16.545,0,0,0,4.348-1.553,9.013,9.013,0,0,0,2.308-1.755,9.013,9.013,0,0,0,2.3,1.739,16.545,16.545,0,0,0,4.348,1.553,18.352,18.352,0,0,0,6.2.4,8.028,8.028,0,0,0,3.838-1.447,5.929,5.929,0,0,0,2.229-3.585A10.58,10.58,0,0,0,38.138,135.137Z" transform="translate(0 -131.698)" fill="#a4703e"/>
    </g>
  </g>
</svg>
